<svg width="14" height="15" viewBox="0 0 14 15" fill="none" xmlns="http://www.w3.org/2000/svg">
<path d="M10.75 6.75C11.005 6.75 11.2525 6.78 11.5 6.8175V3.2025L5.875 0.75L0.25 3.2025V6.885C0.25 10.29 2.65 13.4775 5.875 14.25C6.2875 14.1525 6.685 14.01 7.075 13.8375C6.5575 13.1025 6.25 12.21 6.25 11.25C6.25 8.7675 8.2675 6.75 10.75 6.75Z" fill="#363944"/>
<path d="M10.75 8.25C9.0925 8.25 7.75 9.5925 7.75 11.25C7.75 12.9075 9.0925 14.25 10.75 14.25C12.4075 14.25 13.75 12.9075 13.75 11.25C13.75 9.5925 12.4075 8.25 10.75 8.25ZM10.75 9.285C11.215 9.285 11.59 9.6675 11.59 10.125C11.59 10.5825 11.2075 10.965 10.75 10.965C10.2925 10.965 9.91 10.5825 9.91 10.125C9.91 9.6675 10.285 9.285 10.75 9.285ZM10.75 13.3125C10.0525 13.3125 9.445 12.9675 9.07 12.435C9.1075 11.895 10.2025 11.625 10.75 11.625C11.2975 11.625 12.3925 11.895 12.43 12.435C12.055 12.9675 11.4475 13.3125 10.75 13.3125Z" fill="#363944"/>
</svg>
