<svg width="16" height="15" viewBox="0 0 16 15" fill="none" xmlns="http://www.w3.org/2000/svg">
<path d="M8 0C3.86 0 0.5 3.36 0.5 7.5C0.5 11.64 3.86 15 8 15C12.14 15 15.5 11.64 15.5 7.5C15.5 3.36 12.14 0 8 0ZM10.7075 4.755C11.51 4.755 12.155 5.4 12.155 6.2025C12.155 7.005 11.51 7.65 10.7075 7.65C9.905 7.65 9.26 7.005 9.26 6.2025C9.2525 5.4 9.905 4.755 10.7075 4.755ZM6.2075 3.57C7.1825 3.57 7.9775 4.365 7.9775 5.34C7.9775 6.315 7.1825 7.11 6.2075 7.11C5.2325 7.11 4.4375 6.315 4.4375 5.34C4.4375 4.3575 5.225 3.57 6.2075 3.57ZM6.2075 10.4175V13.23C4.4075 12.6675 2.9825 11.28 2.3525 9.51C3.14 8.67 5.105 8.2425 6.2075 8.2425C6.605 8.2425 7.1075 8.3025 7.6325 8.4075C6.4025 9.06 6.2075 9.9225 6.2075 10.4175ZM8 13.5C7.7975 13.5 7.6025 13.4925 7.4075 13.47V10.4175C7.4075 9.3525 9.6125 8.82 10.7075 8.82C11.51 8.82 12.8975 9.1125 13.5875 9.6825C12.71 11.91 10.5425 13.5 8 13.5Z" fill="#363944"/>
</svg>
