<svg width="100%" height="100%" viewBox="0 0 25 25" fill="none" xmlns="http://www.w3.org/2000/svg">
<circle cx="12.5" cy="12.5" r="11.5" transform="rotate(180 12.5 12.5)" fill="#AFB3C0" stroke="white" stroke-width="2"/>
<path d="M13.1248 16.875L13.1248 9.89375L16.1748 12.9437C16.4186 13.1875 16.8186 13.1875 17.0623 12.9437C17.3061 12.7 17.3061 12.3062 17.0623 12.0625L12.9436 7.94375C12.6998 7.7 12.3061 7.7 12.0623 7.94375L7.94355 12.0625C7.6998 12.3063 7.6998 12.7 7.94355 12.9438C8.1873 13.1875 8.58106 13.1875 8.8248 12.9438L11.8748 9.89375L11.8748 16.875C11.8748 17.2188 12.1561 17.5 12.4998 17.5C12.8436 17.5 13.1248 17.2188 13.1248 16.875Z" fill="#FCFCFC"/>
</svg>
